<svg aria-hidden="true" style="width:0;height:0;position:absolute;overflow:hidden" xmlns="http://www.w3.org/2000/svg"><defs><symbol id="open-menu" viewBox="0 0 24 24"><path fill="currentColor" d="M3 13h18a1 1 0 0 0 0-2H3a1 1 0 0 0 0 2zm0-6h18a1 1 0 0 0 0-2H3a1 1 0 0 0 0 2zm0 12h18a1 1 0 0 0 0-2H3a1 1 0 0 0 0 2z"/></symbol><symbol id="close-menu" viewBox="0 0 24 24"><path fill="currentColor" d="M5.293 6.707 10.586 12l-5.293 5.293a.999.999 0 1 0 1.414 1.414L12 13.414l5.293 5.293a.999.999 0 1 0 1.414-1.414L13.414 12l5.293-5.293a.999.999 0 1 0-1.414-1.414L12 10.586 6.707 5.293a.999.999 0 1 0-1.414 1.414z"/></symbol><symbol id="icon-facebook" viewBox="0 0 32 32"><path d="M26.685 1.55H5.045A4.24 4.24 0 0 0 .806 5.789v21.64a4.24 4.24 0 0 0 4.239 4.239h9.848V20.675H11.17v-4.288h3.723v-3.159c0-1.79.495-3.181 1.485-4.169.99-.99 2.332-1.487 4.028-1.487 1.698 0 2.797.066 3.3.19v3.817h-2.263c-.817 0-1.374.173-1.673.52-.297.344-.446.864-.446 1.555v2.733h4.241L23 20.675h-3.676v10.993h7.36a4.24 4.24 0 0 0 4.239-4.239V5.788a4.24 4.24 0 0 0-4.239-4.239h-.001z"/></symbol><symbol id="icon-instagram" viewBox="0 0 32 32"><path d="M16.01.004c2.214 0 4.429-.01 6.643.003 2.083.012 4.04.487 5.735 1.754 2.214 1.654 3.347 3.913 3.557 6.639.074.959.051 1.927.052 2.891.005 3.738.002 7.476.002 11.214 0 1.527-.212 3.017-.859 4.413-1.311 2.832-3.597 4.38-6.613 4.917-.629.112-1.278.154-1.917.156-4.417.013-8.833.01-13.25.005-2.297-.002-4.397-.609-6.187-2.099C1.354 28.383.395 26.403.096 24.082a9.595 9.595 0 0 1-.083-1.21c-.004-4.643-.032-9.286.013-13.928.025-2.536.869-4.785 2.758-6.557C4.35.917 6.254.149 8.37.074c2.544-.09 5.093-.021 7.641-.021V.004zm-.025 29.039c2.131 0 4.261.009 6.392-.006a9.8 9.8 0 0 0 1.669-.13c2.088-.378 3.676-1.425 4.508-3.458.423-1.033.561-2.141.579-3.215.07-4.165.03-8.331.026-12.497-.001-.451-.005-.908-.069-1.353-.286-2-1.153-3.639-2.994-4.635-1.027-.556-2.142-.766-3.301-.767-4.463-.001-8.927-.003-13.39.003-.403.001-.81.023-1.209.079-2.273.319-3.948 1.44-4.786 3.644-.338.889-.446 1.822-.446 2.768-.001 4.356-.005 8.713.006 13.069.001.533.041 1.074.136 1.597.423 2.324 1.719 3.921 4.026 4.563.769.214 1.591.308 2.391.325 2.154.043 4.308.015 6.463.015z"/><path d="M24.247 15.949c-.002 4.556-3.719 8.261-8.276 8.25a8.24 8.24 0 0 1-8.232-8.251c-.003-4.555 3.709-8.261 8.269-8.256 4.521.005 8.241 3.733 8.239 8.257zm-8.251 5.276c2.906.002 5.3-2.39 5.295-5.291-.005-2.881-2.393-5.274-5.276-5.285-2.902-.012-5.295 2.373-5.301 5.284a5.29 5.29 0 0 0 5.281 5.293zm8.557-11.871a1.85 1.85 0 0 1-1.842-1.87 1.854 1.854 0 0 1 1.89-1.86 1.87 1.87 0 0 1 1.848 1.872 1.867 1.867 0 0 1-1.896 1.858z"/></symbol><symbol id="logo-header" viewBox="0 0 70 32"><path fill="currentColor" d="M0 1.7v1.693h6.116l.006 9.898c.003 5.444.002 9.941-.003 9.993-.009.089.104.096 1.687.096h1.696V3.395l6.089-.028.014-1.679.014-1.679H0v1.693zm19.495 9.99v11.69h3.33l.014-4.027.014-4.027 3.195-.031c3.529-.035 3.513-.033 4.695-.429 2.375-.796 4.196-2.911 4.723-5.488.37-1.809.174-3.808-.514-5.253-.351-.736-.638-1.148-1.223-1.753C32.536 1.138 31.111.494 28.778.135 28.297.061 27.506.043 23.85.024L19.495.002v11.69zm19.495.003v11.686h3.331V.007H38.99v11.686zM56.191.579c-1.153.17-2.001.405-2.999.832-2.247.959-4.338 2.82-5.666 5.04-1.686 2.819-2.058 6.552-.975 9.806.588 1.767 1.459 3.148 2.895 4.587 2.016 2.022 4.238 3.128 6.964 3.467.661.082 2.399.083 3.003.001 2.727-.369 4.815-1.377 6.783-3.274 2.052-1.978 3.151-4.106 3.601-6.97.09-.574.091-2.591.002-3.222-.377-2.667-1.383-4.735-3.245-6.667C64.533 2.08 62.278.93 59.45.555c-.577-.077-2.684-.061-3.259.024zM29.133 3.546c1.389.388 2.422 1.241 2.855 2.359.491 1.269.391 3.055-.234 4.166-.443.788-1.36 1.438-2.456 1.741-.422.116-.542.121-3.454.141l-3.017.02V3.388l2.935.018c2.841.017 2.949.022 3.372.14zm30.612.443c2.077.446 3.784 1.546 5.136 3.311.514.67.933 1.471 1.222 2.336.563 1.683.563 3.907 0 5.59a8.464 8.464 0 0 1-2.586 3.789c-1.101.922-2.143 1.463-3.422 1.774-.864.21-.792.271-.792-.657v-.79l.232-.06c.887-.228 1.563-.528 2.277-1.009.459-.31.932-.696.932-.762 0-.045-.637-.26-1.064-.358a5.614 5.614 0 0 0-1.749-.138l-.508.038-.06.341c-.033.188-.06.69-.06 1.116v.775l-.14.053a1.027 1.027 0 0 1-.3.053h-.161v-.792c0-1.143.209-2.368.565-3.314.151-.402.537-1.192.685-1.404.088-.126.097-.234.073-1.015-.029-1.008.08-1.822.363-2.684.357-1.092 1.17-2.383 1.852-2.945.076-.063.121-.141.1-.175-.101-.163-1.471-.995-1.534-.932-.018.017-.067.263-.11.544-.155 1.021-.565 1.855-1.311 2.67-.164.18-.179.229-.239.819-.208 2.053-.916 3.695-2.088 4.835l-.44.429.14.495c.26.918.413 2.048.414 3.048l.001.423-.177-.001c-.405-.002-.423-.023-.423-.483 0-1.031-.196-2.282-.499-3.188-.257-.769-.25-.762-.435-.422-.087.159-.257.419-.377.578s-.218.3-.218.314c0 .013.084.148.186.3.329.489.443.924.432 1.646-.005.345-.017.699-.027.786-.019.17.039.202.651.359l.232.06v1.579h-.133c-.253 0-1.383-.323-1.88-.537-2.24-.966-4.021-2.885-4.777-5.147-.566-1.694-.566-3.922 0-5.616.785-2.351 2.705-4.354 5.034-5.251a10.3 10.3 0 0 1 1.892-.484c.656-.088 2.486-.029 3.09.101zm-2.53 1.519-.259.02v1.076c0 2.52-.513 4.644-1.491 6.176l-.189.296.26.332c.221.281.766 1.169.838 1.364.033.088.434-.313.808-.807.37-.488.79-1.323.994-1.977.286-.916.376-1.548.405-2.843.028-1.268-.012-1.822-.216-3.009l-.115-.669-.388.01c-.214.005-.505.019-.647.03zm1.684.062c-.011.019.014.231.056.471.12.678.239 1.763.24 2.171.001.203.019.369.041.368.056 0 .357-.458.531-.811.183-.369.333-.953.383-1.49l.039-.417-.265-.087c-.367-.12-1-.247-1.026-.206zm-3.111.247c-.297.093-.559.206-.582.251s-.068.262-.102.482c-.131.864-.643 1.788-1.392 2.514l-.415.402.134.445c.171.566.247 1.046.247 1.564v.41l.258.136c.142.075.404.244.582.375l.324.238.094-.125c.163-.216.578-1.094.756-1.598.481-1.366.68-2.69.651-4.33l-.017-.934-.54.17zM54 6.68a8.36 8.36 0 0 0-1.024.85c-.467.463-.505.516-.432.602.044.052.175.252.29.445l.21.351.454-.476c.362-.38.503-.578.695-.979.226-.471.406-1.049.346-1.109-.015-.015-.257.128-.539.316zm8.437 1.203a6.556 6.556 0 0 0-1.822 4.563v.57l.353-.331c.37-.346.904-.691 1.367-.883l.273-.113-.018-.531c-.033-.951.263-1.758.845-2.309l.298-.282-.299-.39a6.343 6.343 0 0 0-.457-.541l-.158-.151-.382.397zm-10.445.853c-.335.47-.831 1.727-.957 2.425l-.037.205h.371c.368 0 1.052.1 1.491.219.126.034.241.049.256.035s-.002-.256-.037-.536c-.1-.795-.508-1.917-.868-2.386l-.099-.129-.12.169zm11.762.62c-.417.479-.675 1.29-.601 1.888.029.237.053.285.128.262.222-.067.832-.14 1.175-.14h.374l-.038-.232c-.096-.588-.622-1.95-.77-1.993-.034-.01-.154.087-.267.216zm-12.839 2.751c-.07.279.102 1.912.213 2.023.104.104 1.092-.265 1.574-.588.361-.242.932-.852.91-.973-.023-.123-.812-.421-1.376-.519a6.339 6.339 0 0 0-.884-.084c-.386 0-.403.005-.437.141zm12.639-.055a4.45 4.45 0 0 0-2.245 1.117c-.304.278-.858.954-.858 1.046 0 .013.375.013.833 0l.833-.023.382-.362c.639-.605 1.19-.861 1.98-.918l.451-.033v-.37c0-.55.007-.543-.511-.537a6.232 6.232 0 0 0-.863.081zm-9.523.991c-.454.693-1.433 1.353-2.345 1.582-.21.053-.389.099-.397.103-.037.018.386.944.581 1.272.334.563.708 1.044.811 1.044.051 0 .326-.113.611-.252.447-.217.589-.324 1.041-.778.507-.51.88-1.044 1.041-1.49.067-.184.061-.216-.08-.457-.165-.282-1.003-1.174-1.102-1.174-.034 0-.106.067-.159.149zm9.909.556c-.312.1-.827.41-1.002.603-.094.104-.093.108.059.141.347.076.923.259 1.202.382l.296.131.056-.148c.075-.198.266-.997.266-1.117.001-.079-.048-.095-.286-.093a2.433 2.433 0 0 0-.592.101zm-3.496 1.257a1.675 1.675 0 0 0-.365.079c-.071.044-.251.508-.422 1.09l-.126.428.445-.036c.852-.069 2.07.137 2.843.482l.377.168.158-.188a7.94 7.94 0 0 0 .775-1.187l.146-.289-.316-.14c-.673-.299-1.275-.413-2.282-.431-.511-.009-1.066.002-1.235.026zm-6.105 1.971c-.133.115-.452.315-.71.445s-.479.243-.492.251c-.101.061.894.813 1.497 1.131l.381.201.047-.182c.026-.1.038-.415.026-.701-.018-.422-.051-.582-.175-.857-.234-.516-.283-.541-.574-.289zm4.314 2.643c.013.012.015.369.007.792l-.016.769h-1.469v-1.584h.728c.401 0 .738.01.751.023zm-4.646 7.459c-.14.14-.139.33.004.511.225.287.651.118.651-.257 0-.108-.041-.22-.1-.273-.137-.124-.422-.115-.555.019zm-16.104.259c-.15.58-.178.682-.206.754-.023.059.016.078.154.078.174 0 .2-.027.47-.489.157-.269.286-.503.286-.519s-.147-.029-.325-.029h-.326l-.053.205zm9.691-.064c-.102.102-.113.357-.02.449.098.098.342.079.445-.034.12-.133.114-.259-.019-.392-.131-.131-.289-.14-.406-.023zm.933.014c-.18.199-.071.501.181.501.297 0 .441-.319.23-.51-.131-.119-.298-.115-.41.009zm-47.842.896c-.056.181-.522 2.374-.522 2.457 0 .077.048.096.245.096.209 0 .249-.018.271-.123l.137-.664a7.67 7.67 0 0 1 .126-.557c.009-.009.198.278.422.637s.423.652.443.652.224-.299.451-.665c.231-.372.424-.631.437-.587.03.095.253 1.215.253 1.268 0 .021.126.038.279.038.212 0 .272-.018.251-.074-.016-.041-.147-.63-.292-1.311s-.277-1.237-.292-1.237c-.016 0-.262.391-.546.868s-.533.859-.551.848c-.018-.011-.261-.402-.539-.868s-.516-.848-.528-.848-.032.031-.044.068zm3.936.012c-.252.09-.551.364-.689.631-.334.648-.057 1.522.572 1.808.412.187 1.069.115 1.281-.14.108-.13.167-.103.167.078 0 .158.009.164.246.164h.246V28.02h-.246c-.226 0-.246.011-.246.137 0 .141-.075.182-.14.076-.071-.115-.489-.265-.734-.264a1.65 1.65 0 0 0-.457.077zm5.133 0c-.485.173-.812.681-.809 1.258.005.787.487 1.28 1.255 1.282.339.001.583-.079.789-.26.089-.078.096-.071.096.089 0 .168.006.172.246.172h.246V28.02h-.246c-.226 0-.246.011-.246.137 0 .141-.075.182-.14.076-.071-.115-.489-.265-.734-.264a1.65 1.65 0 0 0-.457.077zm2.969-.032a3.653 3.653 0 0 0-.534.253c-.032.027.174.409.22.409a.91.91 0 0 0 .222-.091c.099-.051.311-.093.488-.095.25-.004.336.019.429.111.093.093.104.137.057.226-.069.129-.329.231-.588.231-.176 0-.183.008-.183.209v.209l.333.062c.367.068.486.139.486.289 0 .266-.634.363-1.072.165l-.225-.102-.232.413.123.079c.335.216 1.103.282 1.475.127.49-.205.642-.755.3-1.086l-.177-.172.15-.147c.268-.262.186-.765-.159-.978-.2-.124-.869-.19-1.111-.111zm3.708.566-.841.764c-.09.082-.182.151-.205.151-.023 0-.041-.331-.041-.737v-.737h-.491v2.643l.177-.166c.098-.091.497-.456.887-.809l.71-.643.015.771.015.771h.485l.015-1.311c.009-.721.001-1.311-.017-1.311s-.338.276-.71.614zm10.354-.533c-.27.095-.659.509-.735.782-.188.676.082 1.387.623 1.641.404.19 1.135.151 1.529-.083.098-.058.101-.08.032-.287-.041-.123-.09-.224-.11-.224s-.137.049-.262.109c-.431.208-.958.122-1.209-.197-.224-.285-.199-.294.838-.294 1.088 0 1.056.016.961-.481-.07-.367-.17-.555-.407-.764-.317-.279-.816-.359-1.26-.203zm3.14.006a1.35 1.35 0 0 0-.314.198l-.123.116v-.173c0-.169-.006-.173-.246-.173h-.246v3.932h.491v-.855c0-.81.005-.85.096-.771.203.178.451.261.777.261.779 0 1.258-.495 1.256-1.296-.001-.454-.119-.733-.423-1.007-.345-.311-.865-.406-1.268-.231zm2.921-.006c-.273.096-.64.489-.727.779-.201.671.066 1.387.614 1.645.429.201 1.502.112 1.596-.134.032-.084-.081-.46-.138-.46-.021 0-.135.049-.253.109-.257.131-.728.145-.953.028-.175-.091-.384-.332-.384-.444 0-.058.202-.076.969-.088l.969-.015-.014-.318c-.04-.874-.837-1.397-1.678-1.103zm12.861-.009c-.276.088-.741.562-.814.829-.188.69.127 1.388.744 1.647.097.04.342.073.546.073.311 0 .416-.027.657-.165 1.177-.675.643-2.483-.724-2.45-.12.003-.304.033-.409.066zm17.068.007c-.644.238-1.019.931-.848 1.565.164.608.651.977 1.289.977.448 0 .758-.134 1.021-.441.56-.655.337-1.673-.449-2.051-.262-.126-.744-.15-1.013-.05zm6.605-.027c-.017.028-.4.386-.85.794l-.817.742V28.02h-.491v2.629l.817-.744c.449-.409.837-.773.86-.81s.055.278.07.699l.027.764.519.033v-1.314c0-1.201-.026-1.439-.135-1.262zM7.154 29.304v1.283h.491v-2.075h1.038v-.491H7.154v1.283zm10.707-.093c-.005.655.007 1.232.027 1.283.026.068.1.093.275.093h.24v-1.038h1.256v1.038h.546V28.02h-.546v1.038h-1.256V28.02h-.533l-.009 1.191zm5.402-.853c0 .449-.1 1.01-.224 1.255-.107.212-.342.428-.466.428-.059 0-.075.134-.075.628v.628h.491v-.71h1.966v.71h.546v-1.201h-.437v-2.075h-1.802v.337zm11.795.946v1.283h.669c.761 0 1.015-.054 1.249-.262.284-.253.27-.815-.024-1.022l-.112-.079.127-.135c.163-.174.173-.523.02-.731-.205-.279-.41-.337-1.205-.337h-.724v1.283zm4.61-1.148c-.411.205-.578.576-.458 1.019.072.268.379.593.56.593.095 0 .038.08-.289.41l-.407.41h.68l.389-.41c.271-.285.428-.41.519-.41.125 0 .13.015.13.41v.41h.546v-2.567h-.699c-.634 0-.724.012-.97.135zm2.325 1.148v1.283h.546v-1.038h1.256v1.038h.546V28.02h-.546v1.038h-1.256V28.02h-.546v1.283zM48 29.301v1.286h.246c.135 0 .246-.018.246-.041l.005-1.27.005-1.229-.502-.033V29.3zm3.003.003v1.283h.491v-2.075h1.311v2.075h.491V28.02h-2.294v1.283zm3.047 0 .016 1.283h.488V28.02h-.519l.016 1.283zm1.868-.946c0 .449-.1 1.01-.224 1.256-.098.195-.36.428-.48.428-.04 0-.06.209-.06.628v.628h.491v-.71h1.961l.016.341.016.341.519.033v-1.207h-.437v-2.075h-1.802v.337zm3.495.642c0 1.079-.021 1.151-.331 1.151-.15 0-.16.013-.16.218v.218h.317c.276 0 .336-.02.464-.152.187-.195.257-.558.257-1.329v-.593h.928v2.075h.491v-2.567h-1.966V29zm5.641.29.011 1.27.519.033v-2.081h1.038v-.491h-1.578l.011 1.27zm-59.592-.71c.777.394.503 1.515-.37 1.515-.547 0-.951-.655-.701-1.136a.928.928 0 0 1 .744-.498c.046-.003.193.051.326.118zm5.019-.069a.823.823 0 0 1 .551.58c.196.699-.606 1.284-1.208.881-.334-.223-.471-.684-.3-1.012.106-.204.316-.39.503-.446.214-.064.24-.064.454-.003zm17.069.025c.163.068.408.357.409.481 0 .023-.319.041-.71.041-.649 0-.71-.008-.71-.099 0-.13.27-.385.47-.445.232-.07.332-.065.541.022zm3.191.078c.258.186.358.379.356.684-.005.484-.32.798-.8.798-.685-.001-1.038-.819-.579-1.342.264-.301.715-.362 1.023-.14zm2.858-.082a.65.65 0 0 1 .391.403l.037.123h-.714c-.782 0-.817-.017-.595-.299a.73.73 0 0 1 .88-.227zm12.98.079c.51.377.504 1.061-.012 1.375-.501.306-1.193-.079-1.202-.669-.005-.334.148-.584.452-.741.279-.144.538-.132.762.034zm16.966-.048c.537.244.642.894.212 1.311-.156.152-.242.189-.479.208s-.323 0-.479-.106c-.459-.31-.506-.905-.1-1.284.264-.247.507-.284.847-.13zm-38.988.674c.006.384-.003.734-.02.778-.024.064-.149.08-.603.08-.315 0-.563-.018-.551-.041A2.76 2.76 0 0 0 23.711 29l.061-.493.774.032.011.698zm11.912-.638c.159.111.137.297-.046.388-.075.038-.302.069-.505.07l-.369.001v-.546h.397c.276 0 .436.027.522.087zm4.323.295v.382h-.386c-.524 0-.704-.099-.705-.387-.002-.265.196-.367.723-.373l.369-.004v.382zm16.402.396-.007.778-.58.015c-.319.009-.58.004-.58-.011s.047-.107.105-.207c.13-.225.203-.51.25-.986l.037-.369h.783l-.007.778zm-20.696.266c.176.08.212.237.089.389-.089.109-.148.123-.555.123h-.455l-.017-.287-.017-.287h.41c.225 0 .47.028.544.061z"/></symbol><symbol id="logo" viewBox="0 0 92 32"><path d="M0 2.228v2.219h8.018l.008 12.975c.005 7.136.002 13.032-.005 13.101-.012.117.136.125 2.211.125h2.224v-26.2l7.982-.037.019-2.201.019-2.201H0v2.219zm25.557 13.097v15.324h4.366l.018-5.28.018-5.28 4.188-.041c4.626-.046 4.605-.044 6.155-.563 3.114-1.043 5.501-3.817 6.192-7.195.485-2.371.229-4.993-.673-6.886-.46-.965-.836-1.505-1.603-2.298C42.654 1.489 40.785.644 37.727.173c-.631-.097-1.667-.12-6.461-.145l-5.709-.029v15.325zm25.557.004v15.32h4.367V.009h-4.367v15.32zM73.664.759c-1.512.223-2.624.532-3.931 1.09-2.945 1.258-5.687 3.696-7.428 6.607-2.211 3.695-2.698 8.59-1.279 12.855.771 2.316 1.913 4.126 3.795 6.014 2.643 2.65 5.556 4.1 9.13 4.545.866.108 3.145.109 3.937.001 3.574-.483 6.313-1.805 8.892-4.292 2.69-2.593 4.131-5.383 4.721-9.137.118-.752.12-3.397.003-4.224-.495-3.497-1.813-6.207-4.254-8.74-2.65-2.751-5.605-4.259-9.313-4.751-.756-.1-3.519-.08-4.272.031zM38.192 4.648c1.821.508 3.175 1.627 3.742 3.093.644 1.663.512 4.005-.307 5.461-.581 1.033-1.783 1.885-3.22 2.282-.553.153-.711.159-4.528.185l-3.955.027V4.442l3.848.024c3.725.023 3.866.029 4.421.184zm40.131.581c2.723.585 4.96 2.027 6.733 4.341a10.567 10.567 0 0 1 1.602 3.062c.738 2.206.738 5.121 0 7.328a11.096 11.096 0 0 1-3.39 4.968c-1.443 1.209-2.81 1.918-4.486 2.326-1.133.276-1.038.355-1.038-.861v-1.035l.304-.078c1.163-.299 2.05-.692 2.985-1.323.602-.406 1.221-.912 1.221-.999 0-.059-.835-.34-1.395-.469a7.37 7.37 0 0 0-2.292-.181l-.666.05-.078.447c-.043.246-.078.904-.078 1.463v1.016l-.183.07c-.102.038-.278.07-.394.07h-.21v-1.039c0-1.498.273-3.104.741-4.345.198-.527.704-1.562.898-1.841.116-.166.127-.307.096-1.331-.039-1.322.105-2.389.475-3.518.468-1.431 1.533-3.125 2.428-3.861.1-.082.159-.185.132-.23-.132-.214-1.929-1.305-2.012-1.222-.024.023-.088.344-.144.714-.203 1.339-.74 2.432-1.719 3.5-.215.236-.235.3-.313 1.074-.272 2.691-1.201 4.843-2.738 6.338l-.577.562.183.649c.341 1.203.542 2.685.543 3.995l.001.555-.233-.001c-.53-.002-.555-.03-.555-.634 0-1.351-.257-2.992-.654-4.179-.336-1.008-.327-.999-.571-.553-.115.208-.336.549-.494.758s-.286.394-.286.411c0 .017.11.195.244.394.431.641.581 1.212.567 2.158-.006.453-.023.917-.036 1.031-.025.223.051.265.853.471l.304.078v2.071h-.174c-.332 0-1.813-.423-2.465-.704-2.937-1.266-5.272-3.782-6.262-6.747-.741-2.22-.741-5.141 0-7.362 1.029-3.082 3.547-5.708 6.599-6.884a13.4 13.4 0 0 1 2.481-.634c.86-.116 3.259-.038 4.05.132zm-3.316 1.992-.34.027v1.41c0 3.303-.672 6.088-1.955 8.097l-.248.388.341.436c.289.369 1.004 1.533 1.099 1.788.043.115.568-.41 1.059-1.059.485-.64 1.035-1.735 1.303-2.592.375-1.201.493-2.03.53-3.727.037-1.663-.016-2.388-.283-3.945l-.15-.877-.508.013c-.28.007-.661.025-.848.04zm2.207.081c-.015.025.018.303.073.618.157.888.314 2.312.314 2.846.001.266.025.483.054.483.074 0 .467-.6.697-1.063.24-.483.437-1.25.503-1.954l.051-.546-.347-.114c-.481-.158-1.311-.324-1.344-.27zm-4.079.324c-.389.122-.732.271-.762.33s-.09.343-.134.632c-.172 1.133-.843 2.344-1.825 3.295l-.544.526.176.583c.224.742.324 1.372.324 2.051l.001.537.338.179c.186.098.529.319.763.491l.425.312.124-.164c.213-.283.758-1.435.991-2.094.631-1.79.891-3.527.853-5.676l-.022-1.225-.708.222zm-2.343 1.131c-.369.247-.974.748-1.343 1.114-.612.606-.662.676-.566.789.058.068.229.331.38.584l.275.46.596-.624c.475-.498.659-.757.911-1.283.296-.618.532-1.375.454-1.453-.019-.019-.337.167-.706.414zm11.06 1.578a8.593 8.593 0 0 0-2.389 5.981v.747l.463-.433a6.489 6.489 0 0 1 1.792-1.157l.358-.148-.024-.696c-.043-1.247.344-2.304 1.108-3.026l.391-.37-.392-.511a8.276 8.276 0 0 0-.599-.709l-.208-.198-.5.52zM68.16 11.453c-.439.616-1.089 2.265-1.254 3.179l-.049.268h.487c.483 0 1.379.132 1.955.287.165.044.316.065.335.045s-.003-.336-.049-.703c-.132-1.042-.666-2.513-1.137-3.128l-.13-.17-.158.221zm15.419.813c-.547.628-.886 1.692-.787 2.475.039.311.069.374.168.344.291-.088 1.091-.184 1.54-.184l.49-.001-.05-.304c-.125-.771-.815-2.556-1.01-2.613-.045-.013-.202.114-.349.283zm-16.831 3.606c-.092.365.134 2.506.279 2.651.136.136 1.431-.348 2.064-.771.474-.317 1.222-1.117 1.192-1.276-.03-.161-1.065-.551-1.803-.68a8.188 8.188 0 0 0-1.159-.11c-.506 0-.528.007-.573.185zm16.569-.073a5.829 5.829 0 0 0-2.944 1.464c-.398.365-1.125 1.251-1.125 1.372 0 .017.491.017 1.092 0l1.092-.031.501-.475c.838-.794 1.56-1.129 2.595-1.204l.591-.043v-.485c0-.721.009-.712-.67-.705-.321.004-.83.051-1.132.106zm-12.484 1.3c-.595.908-1.879 1.774-3.074 2.074-.276.069-.51.13-.521.135-.048.024.506 1.238.761 1.667.438.738.928 1.369 1.063 1.369.067 0 .427-.149.801-.33.585-.285.772-.425 1.364-1.02.665-.669 1.153-1.368 1.365-1.954.087-.242.08-.283-.105-.598-.217-.37-1.314-1.538-1.445-1.538-.045 0-.139.088-.209.195zm12.991.728c-.409.131-1.085.537-1.314.79-.124.137-.122.142.077.185.455.099 1.21.339 1.576.501l.388.172.074-.194c.099-.259.349-1.307.349-1.465.001-.104-.063-.125-.375-.121a3.147 3.147 0 0 0-.776.132zm-4.584 1.649c-.221.031-.436.077-.478.104-.093.058-.329.666-.553 1.429l-.165.561.583-.047c1.117-.091 2.713.18 3.727.632l.494.22.208-.247c.292-.346.789-1.108 1.016-1.556l.192-.379-.414-.184c-.882-.392-1.672-.541-2.992-.565-.669-.012-1.397.003-1.619.034zm-8.003 2.583c-.174.151-.593.413-.931.584s-.628.319-.645.329c-.132.081 1.172 1.066 1.962 1.483l.5.264.062-.238c.034-.131.049-.544.034-.918-.024-.553-.067-.763-.23-1.124-.307-.677-.371-.709-.752-.379zm5.655 3.465c.016.016.02.483.009 1.038l-.021 1.008h-1.926v-2.076h.954c.525 0 .968.013.984.03z"/></symbol><symbol id="icon-mail" viewBox="0 0 32 32"><path d="M32.001 24c0 .702-.197 1.352-.513 1.924L21.384 14.619l9.994-8.744A3.97 3.97 0 0 1 32.001 8v16zM16 16.672 29.907 4.504A3.955 3.955 0 0 0 28 4H3.999c-.694 0-1.337.192-1.905.504L16 16.672zm3.878-.736-3.219 2.818a.999.999 0 0 1-1.316 0l-3.22-2.819L1.891 27.384A3.948 3.948 0 0 0 4 27.999h24.001c.777 0 1.496-.23 2.109-.615L19.877 15.935zM.623 5.875A3.97 3.97 0 0 0 0 8v16c0 .702.196 1.352.514 1.924l10.103-11.307L.624 5.875z"/></symbol><symbol id="icon-phone" viewBox="0 0 32 32"><path fill="currentColor" d="m31.856 25.506-.159-.48c-.377-1.121-1.614-2.291-2.75-2.599l-4.204-1.148c-1.14-.31-2.766.107-3.601.941l-1.522 1.522A16.14 16.14 0 0 1 8.262 12.383l1.522-1.522c.834-.834 1.251-2.458.941-3.598L9.579 3.057C9.269 1.919 8.097.683 6.978.309l-.48-.161c-1.121-.373-2.72.004-3.554.838L.668 3.264C.261 3.668.002 4.825.002 4.83a26.882 26.882 0 0 0 7.865 19.3 26.892 26.892 0 0 0 19.24 7.868c.038 0 1.228-.256 1.635-.66l2.276-2.276c.834-.834 1.211-2.433.838-3.554z"/></symbol><symbol id="icon-telegram" viewBox="0 0 32 32"><path d="M29.402 2.839 1.051 13.828c-1.141.512-1.527 1.537-.276 2.093l7.273 2.323L25.633 7.32c.96-.686 1.943-.503 1.097.251L11.626 21.317l-.474 5.817c.439.898 1.244.902 1.757.456l4.179-3.974 7.157 5.387c1.662.989 2.567.351 2.924-1.462l4.694-22.342c.487-2.232-.344-3.215-2.462-2.36z"/></symbol></defs></svg>