<svg aria-hidden="true" style="position: absolute; width: 0; height: 0; overflow: hidden;" version="1.1" xmlns="http://www.w3.org/2000/svg" xmlns:xlink="http://www.w3.org/1999/xlink">
<defs>
<symbol id="open-menu" viewBox="0 0 24 24">
<path fill="currentColor" d="M3 13h18c0.552 0 1-0.448 1-1s-0.448-1-1-1h-18c-0.552 0-1 0.448-1 1s0.448 1 1 1zM3 7h18c0.552 0 1-0.448 1-1s-0.448-1-1-1h-18c-0.552 0-1 0.448-1 1s0.448 1 1 1zM3 19h18c0.552 0 1-0.448 1-1s-0.448-1-1-1h-18c-0.552 0-1 0.448-1 1s0.448 1 1 1z"></path>
</symbol>
<symbol id="close-menu" viewBox="0 0 24 24">
<path fill="currentColor" d="M5.293 6.707l5.293 5.293-5.293 5.293c-0.391 0.391-0.391 1.024 0 1.414s1.024 0.391 1.414 0l5.293-5.293 5.293 5.293c0.391 0.391 1.024 0.391 1.414 0s0.391-1.024 0-1.414l-5.293-5.293 5.293-5.293c0.391-0.391 0.391-1.024 0-1.414s-1.024-0.391-1.414 0l-5.293 5.293-5.293-5.293c-0.391-0.391-1.024-0.391-1.414 0s-0.391 1.024 0 1.414z"></path>
</symbol>
<symbol id="icon-facebook" viewBox="0 0 32 32">
<path d="M26.685 1.55h-21.64c-2.341 0-4.239 1.898-4.239 4.239v0 21.64c0 0 0 0 0 0 0 2.341 1.898 4.239 4.239 4.239 0 0 0 0 0 0h9.848v-10.993h-3.723v-4.288h3.723v-3.159c0-1.79 0.495-3.181 1.485-4.169 0.99-0.99 2.332-1.487 4.028-1.487 1.698 0 2.797 0.066 3.3 0.19v3.817h-2.263c-0.817 0-1.374 0.173-1.673 0.52-0.297 0.344-0.446 0.864-0.446 1.555v2.733h4.241l-0.565 4.288h-3.676v10.993h7.36c2.341 0 4.239-1.898 4.239-4.239v0-21.64c0-0 0-0 0-0.001 0-2.341-1.898-4.239-4.239-4.239-0 0-0 0-0.001 0h0z"></path>
</symbol>
<symbol id="icon-instagram" viewBox="0 0 32 32">
<path d="M16.010 0.004c2.214 0 4.429-0.010 6.643 0.003 2.083 0.012 4.040 0.487 5.735 1.754 2.214 1.654 3.347 3.913 3.557 6.639 0.074 0.959 0.051 1.927 0.052 2.891 0.005 3.738 0.002 7.476 0.002 11.214-0 1.527-0.212 3.017-0.859 4.413-1.311 2.832-3.597 4.38-6.613 4.917-0.629 0.112-1.278 0.154-1.917 0.156-4.417 0.013-8.833 0.010-13.25 0.005-2.297-0.002-4.397-0.609-6.187-2.099-1.819-1.514-2.778-3.494-3.077-5.815-0.051-0.4-0.083-0.806-0.083-1.21-0.004-4.643-0.032-9.286 0.013-13.928 0.025-2.536 0.869-4.785 2.758-6.557 1.566-1.47 3.47-2.238 5.586-2.313 2.544-0.090 5.093-0.021 7.641-0.021 0-0.016 0-0.033 0-0.049zM15.985 29.043c2.131 0 4.261 0.009 6.392-0.006 0.557-0.004 1.122-0.031 1.669-0.13 2.088-0.378 3.676-1.425 4.508-3.458 0.423-1.033 0.561-2.141 0.579-3.215 0.070-4.165 0.030-8.331 0.026-12.497-0.001-0.451-0.005-0.908-0.069-1.353-0.286-2-1.153-3.639-2.994-4.635-1.027-0.556-2.142-0.766-3.301-0.767-4.463-0.001-8.927-0.003-13.39 0.003-0.403 0.001-0.81 0.023-1.209 0.079-2.273 0.319-3.948 1.44-4.786 3.644-0.338 0.889-0.446 1.822-0.446 2.768-0.001 4.356-0.005 8.713 0.006 13.069 0.001 0.533 0.041 1.074 0.136 1.597 0.423 2.324 1.719 3.921 4.026 4.563 0.769 0.214 1.591 0.308 2.391 0.325 2.154 0.043 4.308 0.015 6.463 0.015z"></path>
<path d="M24.247 15.949c-0.002 4.556-3.719 8.261-8.276 8.25-4.558-0.011-8.23-3.691-8.232-8.251-0.003-4.555 3.709-8.261 8.269-8.256 4.521 0.005 8.241 3.733 8.239 8.257zM15.996 21.225c2.906 0.002 5.3-2.39 5.295-5.291-0.005-2.881-2.393-5.274-5.276-5.285-2.902-0.012-5.295 2.373-5.301 5.284-0.006 2.915 2.365 5.291 5.281 5.293zM24.553 9.354c-1.032-0.009-1.845-0.835-1.842-1.87 0.003-1.047 0.837-1.867 1.89-1.86 1.020 0.007 1.851 0.849 1.848 1.872-0.003 1.038-0.85 1.867-1.896 1.858z"></path>
</symbol>
<symbol id="logo-header" viewBox="0 0 70 32">
<path fill="currentColor" d="M0 1.7v1.693h6.116l0.006 9.898c0.003 5.444 0.002 9.941-0.003 9.993-0.009 0.089 0.104 0.096 1.687 0.096h1.696v-19.985l6.089-0.028 0.014-1.679 0.014-1.679h-15.619v1.693zM19.495 11.69v11.69h3.33l0.014-4.027 0.014-4.027 3.195-0.031c3.529-0.035 3.513-0.033 4.695-0.429 2.375-0.796 4.196-2.911 4.723-5.488 0.37-1.809 0.174-3.808-0.514-5.253-0.351-0.736-0.638-1.148-1.223-1.753-1.193-1.234-2.618-1.878-4.951-2.237-0.481-0.074-1.272-0.092-4.928-0.111l-4.355-0.022v11.69zM38.99 11.693v11.686h3.331v-23.372h-3.331v11.686zM56.191 0.579c-1.153 0.17-2.001 0.405-2.999 0.832-2.247 0.959-4.338 2.82-5.666 5.040-1.686 2.819-2.058 6.552-0.975 9.806 0.588 1.767 1.459 3.148 2.895 4.587 2.016 2.022 4.238 3.128 6.964 3.467 0.661 0.082 2.399 0.083 3.003 0.001 2.727-0.369 4.815-1.377 6.783-3.274 2.052-1.978 3.151-4.106 3.601-6.97 0.090-0.574 0.091-2.591 0.002-3.222-0.377-2.667-1.383-4.735-3.245-6.667-2.021-2.099-4.276-3.249-7.104-3.624-0.577-0.077-2.684-0.061-3.259 0.024zM29.133 3.546c1.389 0.388 2.422 1.241 2.855 2.359 0.491 1.269 0.391 3.055-0.234 4.166-0.443 0.788-1.36 1.438-2.456 1.741-0.422 0.116-0.542 0.121-3.454 0.141l-3.017 0.020v-8.585l2.935 0.018c2.841 0.017 2.949 0.022 3.372 0.14zM59.745 3.989c2.077 0.446 3.784 1.546 5.136 3.311 0.514 0.67 0.933 1.471 1.222 2.336 0.563 1.683 0.563 3.907 0 5.59-0.493 1.471-1.392 2.789-2.586 3.789-1.101 0.922-2.143 1.463-3.422 1.774-0.864 0.21-0.792 0.271-0.792-0.657v-0.79l0.232-0.060c0.887-0.228 1.563-0.528 2.277-1.009 0.459-0.31 0.932-0.696 0.932-0.762 0-0.045-0.637-0.26-1.064-0.358-0.605-0.14-1.151-0.183-1.749-0.138l-0.508 0.038-0.060 0.341c-0.033 0.188-0.060 0.69-0.060 1.116v0.775l-0.14 0.053c-0.078 0.029-0.212 0.053-0.3 0.053h-0.161v-0.792c0-1.143 0.209-2.368 0.565-3.314 0.151-0.402 0.537-1.192 0.685-1.404 0.088-0.126 0.097-0.234 0.073-1.015-0.029-1.008 0.080-1.822 0.363-2.684 0.357-1.092 1.17-2.383 1.852-2.945 0.076-0.063 0.121-0.141 0.1-0.175-0.101-0.163-1.471-0.995-1.534-0.932-0.018 0.017-0.067 0.263-0.11 0.544-0.155 1.021-0.565 1.855-1.311 2.67-0.164 0.18-0.179 0.229-0.239 0.819-0.208 2.053-0.916 3.695-2.088 4.835l-0.44 0.429 0.14 0.495c0.26 0.918 0.413 2.048 0.414 3.048l0.001 0.423-0.177-0.001c-0.405-0.002-0.423-0.023-0.423-0.483 0-1.031-0.196-2.282-0.499-3.188-0.257-0.769-0.25-0.762-0.435-0.422-0.087 0.159-0.257 0.419-0.377 0.578s-0.218 0.3-0.218 0.314c0 0.013 0.084 0.148 0.186 0.3 0.329 0.489 0.443 0.924 0.432 1.646-0.005 0.345-0.017 0.699-0.027 0.786-0.019 0.17 0.039 0.202 0.651 0.359l0.232 0.060v1.579h-0.133c-0.253 0-1.383-0.323-1.88-0.537-2.24-0.966-4.021-2.885-4.777-5.147-0.566-1.694-0.566-3.922 0-5.616 0.785-2.351 2.705-4.354 5.034-5.251 0.497-0.191 1.361-0.412 1.892-0.484 0.656-0.088 2.486-0.029 3.090 0.101zM57.215 5.508l-0.259 0.020v1.076c0 2.52-0.513 4.644-1.491 6.176l-0.189 0.296 0.26 0.332c0.221 0.281 0.766 1.169 0.838 1.364 0.033 0.088 0.434-0.313 0.808-0.807 0.37-0.488 0.79-1.323 0.994-1.977 0.286-0.916 0.376-1.548 0.405-2.843 0.028-1.268-0.012-1.822-0.216-3.009l-0.115-0.669-0.388 0.010c-0.214 0.005-0.505 0.019-0.647 0.030zM58.899 5.57c-0.011 0.019 0.014 0.231 0.056 0.471 0.12 0.678 0.239 1.763 0.24 2.171 0.001 0.203 0.019 0.369 0.041 0.368 0.056-0 0.357-0.458 0.531-0.811 0.183-0.369 0.333-0.953 0.383-1.49l0.039-0.417-0.265-0.087c-0.367-0.12-1-0.247-1.026-0.206zM55.788 5.817c-0.297 0.093-0.559 0.206-0.582 0.251s-0.068 0.262-0.102 0.482c-0.131 0.864-0.643 1.788-1.392 2.514l-0.415 0.402 0.134 0.445c0.171 0.566 0.247 1.046 0.247 1.564l0 0.41 0.258 0.136c0.142 0.075 0.404 0.244 0.582 0.375l0.324 0.238 0.094-0.125c0.163-0.216 0.578-1.094 0.756-1.598 0.481-1.366 0.68-2.69 0.651-4.33l-0.017-0.934-0.54 0.17zM54 6.68c-0.282 0.188-0.743 0.571-1.024 0.85-0.467 0.463-0.505 0.516-0.432 0.602 0.044 0.052 0.175 0.252 0.29 0.445l0.21 0.351 0.454-0.476c0.362-0.38 0.503-0.578 0.695-0.979 0.226-0.471 0.406-1.049 0.346-1.109-0.015-0.015-0.257 0.128-0.539 0.316zM62.437 7.883c-1.172 1.218-1.822 2.845-1.822 4.563v0.57l0.353-0.331c0.37-0.346 0.904-0.691 1.367-0.883l0.273-0.113-0.018-0.531c-0.033-0.951 0.263-1.758 0.845-2.309l0.298-0.282-0.299-0.39c-0.164-0.214-0.37-0.458-0.457-0.541l-0.158-0.151-0.382 0.397zM51.992 8.736c-0.335 0.47-0.831 1.727-0.957 2.425l-0.037 0.205 0.371 0c0.368 0 1.052 0.1 1.491 0.219 0.126 0.034 0.241 0.049 0.256 0.035s-0.002-0.256-0.037-0.536c-0.1-0.795-0.508-1.917-0.868-2.386l-0.099-0.129-0.12 0.169zM63.754 9.356c-0.417 0.479-0.675 1.29-0.601 1.888 0.029 0.237 0.053 0.285 0.128 0.262 0.222-0.067 0.832-0.14 1.175-0.14l0.374-0-0.038-0.232c-0.096-0.588-0.622-1.95-0.77-1.993-0.034-0.010-0.154 0.087-0.267 0.216zM50.915 12.107c-0.070 0.279 0.102 1.912 0.213 2.023 0.104 0.104 1.092-0.265 1.574-0.588 0.361-0.242 0.932-0.852 0.91-0.973-0.023-0.123-0.812-0.421-1.376-0.519-0.266-0.046-0.664-0.084-0.884-0.084-0.386 0-0.403 0.005-0.437 0.141zM63.554 12.052c-0.849 0.154-1.605 0.53-2.245 1.117-0.304 0.278-0.858 0.954-0.858 1.046 0 0.013 0.375 0.013 0.833 0l0.833-0.023 0.382-0.362c0.639-0.605 1.19-0.861 1.98-0.918l0.451-0.033v-0.37c0-0.55 0.007-0.543-0.511-0.537-0.245 0.003-0.633 0.039-0.863 0.081zM54.031 13.043c-0.454 0.693-1.433 1.353-2.345 1.582-0.21 0.053-0.389 0.099-0.397 0.103-0.037 0.018 0.386 0.944 0.581 1.272 0.334 0.563 0.708 1.044 0.811 1.044 0.051 0 0.326-0.113 0.611-0.252 0.447-0.217 0.589-0.324 1.041-0.778 0.507-0.51 0.88-1.044 1.041-1.49 0.067-0.184 0.061-0.216-0.080-0.457-0.165-0.282-1.003-1.174-1.102-1.174-0.034 0-0.106 0.067-0.159 0.149zM63.94 13.599c-0.312 0.1-0.827 0.41-1.002 0.603-0.094 0.104-0.093 0.108 0.059 0.141 0.347 0.076 0.923 0.259 1.202 0.382l0.296 0.131 0.056-0.148c0.075-0.198 0.266-0.997 0.266-1.117 0.001-0.079-0.048-0.095-0.286-0.093-0.158 0.002-0.424 0.047-0.592 0.101zM60.444 14.856c-0.168 0.023-0.333 0.059-0.365 0.079-0.071 0.044-0.251 0.508-0.422 1.090l-0.126 0.428 0.445-0.036c0.852-0.069 2.070 0.137 2.843 0.482l0.377 0.168 0.158-0.188c0.223-0.264 0.602-0.845 0.775-1.187l0.146-0.289-0.316-0.14c-0.673-0.299-1.275-0.413-2.282-0.431-0.511-0.009-1.066 0.002-1.235 0.026zM54.339 16.827c-0.133 0.115-0.452 0.315-0.71 0.445s-0.479 0.243-0.492 0.251c-0.101 0.061 0.894 0.813 1.497 1.131l0.381 0.201 0.047-0.182c0.026-0.1 0.038-0.415 0.026-0.701-0.018-0.422-0.051-0.582-0.175-0.857-0.234-0.516-0.283-0.541-0.574-0.289zM58.653 19.47c0.013 0.012 0.015 0.369 0.007 0.792l-0.016 0.769h-1.469v-1.584h0.728c0.401 0 0.738 0.010 0.751 0.023zM54.007 26.929c-0.14 0.14-0.139 0.33 0.004 0.511 0.225 0.287 0.651 0.118 0.651-0.257 0-0.108-0.041-0.22-0.1-0.273-0.137-0.124-0.422-0.115-0.555 0.019zM37.903 27.188c-0.15 0.58-0.178 0.682-0.206 0.754-0.023 0.059 0.016 0.078 0.154 0.078 0.174 0 0.2-0.027 0.47-0.489 0.157-0.269 0.286-0.503 0.286-0.519s-0.147-0.029-0.325-0.029h-0.326l-0.053 0.205zM47.594 27.124c-0.102 0.102-0.113 0.357-0.020 0.449 0.098 0.098 0.342 0.079 0.445-0.034 0.12-0.133 0.114-0.259-0.019-0.392-0.131-0.131-0.289-0.14-0.406-0.023zM48.527 27.138c-0.18 0.199-0.071 0.501 0.181 0.501 0.297 0 0.441-0.319 0.23-0.51-0.131-0.119-0.298-0.115-0.41 0.009zM0.685 28.034c-0.056 0.181-0.522 2.374-0.522 2.457 0 0.077 0.048 0.096 0.245 0.096 0.209 0 0.249-0.018 0.271-0.123 0.015-0.068 0.076-0.366 0.137-0.664s0.118-0.548 0.126-0.557c0.009-0.009 0.198 0.278 0.422 0.637s0.423 0.652 0.443 0.652 0.224-0.299 0.451-0.665c0.231-0.372 0.424-0.631 0.437-0.587 0.030 0.095 0.253 1.215 0.253 1.268 0 0.021 0.126 0.038 0.279 0.038 0.212 0 0.272-0.018 0.251-0.074-0.016-0.041-0.147-0.63-0.292-1.311s-0.277-1.237-0.292-1.237c-0.016 0-0.262 0.391-0.546 0.868s-0.533 0.859-0.551 0.848c-0.018-0.011-0.261-0.402-0.539-0.868s-0.516-0.848-0.528-0.848-0.032 0.031-0.044 0.068zM4.621 28.046c-0.252 0.090-0.551 0.364-0.689 0.631-0.334 0.648-0.057 1.522 0.572 1.808 0.412 0.187 1.069 0.115 1.281-0.14 0.108-0.13 0.167-0.103 0.167 0.078 0 0.158 0.009 0.164 0.246 0.164h0.246v-2.567h-0.246c-0.226 0-0.246 0.011-0.246 0.137 0 0.141-0.075 0.182-0.14 0.076-0.071-0.115-0.489-0.265-0.734-0.264-0.135 0.001-0.341 0.035-0.457 0.077zM9.754 28.046c-0.485 0.173-0.812 0.681-0.809 1.258 0.005 0.787 0.487 1.28 1.255 1.282 0.339 0.001 0.583-0.079 0.789-0.26 0.089-0.078 0.096-0.071 0.096 0.089 0 0.168 0.006 0.172 0.246 0.172h0.246v-2.567h-0.246c-0.226 0-0.246 0.011-0.246 0.137 0 0.141-0.075 0.182-0.14 0.076-0.071-0.115-0.489-0.265-0.734-0.264-0.135 0.001-0.341 0.035-0.457 0.077zM12.723 28.014c-0.119 0.039-0.489 0.214-0.534 0.253-0.032 0.027 0.174 0.409 0.22 0.409 0.026 0 0.126-0.041 0.222-0.091 0.099-0.051 0.311-0.093 0.488-0.095 0.25-0.004 0.336 0.019 0.429 0.111 0.093 0.093 0.104 0.137 0.057 0.226-0.069 0.129-0.329 0.231-0.588 0.231-0.176 0-0.183 0.008-0.183 0.209v0.209l0.333 0.062c0.367 0.068 0.486 0.139 0.486 0.289 0 0.266-0.634 0.363-1.072 0.165l-0.225-0.102-0.232 0.413 0.123 0.079c0.335 0.216 1.103 0.282 1.475 0.127 0.49-0.205 0.642-0.755 0.3-1.086l-0.177-0.172 0.15-0.147c0.268-0.262 0.186-0.765-0.159-0.978-0.2-0.124-0.869-0.19-1.111-0.111zM16.431 28.58c-0.372 0.338-0.751 0.682-0.841 0.764s-0.182 0.151-0.205 0.151c-0.023 0-0.041-0.331-0.041-0.737v-0.737h-0.491v2.643l0.177-0.166c0.098-0.091 0.497-0.456 0.887-0.809l0.71-0.643 0.015 0.771 0.015 0.771h0.485l0.015-1.311c0.009-0.721 0.001-1.311-0.017-1.311s-0.338 0.276-0.71 0.614zM26.785 28.047c-0.27 0.095-0.659 0.509-0.735 0.782-0.188 0.676 0.082 1.387 0.623 1.641 0.404 0.19 1.135 0.151 1.529-0.083 0.098-0.058 0.101-0.080 0.032-0.287-0.041-0.123-0.090-0.224-0.11-0.224s-0.137 0.049-0.262 0.109c-0.431 0.208-0.958 0.122-1.209-0.197-0.224-0.285-0.199-0.294 0.838-0.294 1.088 0 1.056 0.016 0.961-0.481-0.070-0.367-0.17-0.555-0.407-0.764-0.317-0.279-0.816-0.359-1.26-0.203zM29.925 28.053c-0.105 0.046-0.246 0.135-0.314 0.198l-0.123 0.116v-0.173c0-0.169-0.006-0.173-0.246-0.173h-0.246v3.932h0.491v-0.855c0-0.81 0.005-0.85 0.096-0.771 0.203 0.178 0.451 0.261 0.777 0.261 0.779 0 1.258-0.495 1.256-1.296-0.001-0.454-0.119-0.733-0.423-1.007-0.345-0.311-0.865-0.406-1.268-0.231zM32.846 28.047c-0.273 0.096-0.64 0.489-0.727 0.779-0.201 0.671 0.066 1.387 0.614 1.645 0.429 0.201 1.502 0.112 1.596-0.134 0.032-0.084-0.081-0.46-0.138-0.46-0.021 0-0.135 0.049-0.253 0.109-0.257 0.131-0.728 0.145-0.953 0.028-0.175-0.091-0.384-0.332-0.384-0.444 0-0.058 0.202-0.076 0.969-0.088l0.969-0.015-0.014-0.318c-0.040-0.874-0.837-1.397-1.678-1.103zM45.707 28.038c-0.276 0.088-0.741 0.562-0.814 0.829-0.188 0.69 0.127 1.388 0.744 1.647 0.097 0.040 0.342 0.073 0.546 0.073 0.311-0 0.416-0.027 0.657-0.165 1.177-0.675 0.643-2.483-0.724-2.45-0.12 0.003-0.304 0.033-0.409 0.066zM62.775 28.045c-0.644 0.238-1.019 0.931-0.848 1.565 0.164 0.608 0.651 0.977 1.289 0.977 0.448 0 0.758-0.134 1.021-0.441 0.56-0.655 0.337-1.673-0.449-2.051-0.262-0.126-0.744-0.15-1.013-0.050zM69.38 28.018c-0.017 0.028-0.4 0.386-0.85 0.794l-0.817 0.742v-1.534h-0.491v2.629l0.817-0.744c0.449-0.409 0.837-0.773 0.86-0.81s0.055 0.278 0.070 0.699l0.027 0.764 0.519 0.033v-1.314c0-1.201-0.026-1.439-0.135-1.262zM7.154 29.304v1.283h0.491v-2.075h1.038v-0.491h-1.529v1.283zM17.861 29.211c-0.005 0.655 0.007 1.232 0.027 1.283 0.026 0.068 0.1 0.093 0.275 0.093h0.24v-1.038h1.256v1.038h0.546v-2.567h-0.546v1.038h-1.256v-1.038h-0.533l-0.009 1.191zM23.263 28.358c0 0.449-0.1 1.010-0.224 1.255-0.107 0.212-0.342 0.428-0.466 0.428-0.059 0-0.075 0.134-0.075 0.628v0.628h0.491v-0.71h1.966v0.71h0.546v-1.201h-0.437v-2.075h-1.802v0.337zM35.058 29.304v1.283l0.669-0c0.761-0 1.015-0.054 1.249-0.262 0.284-0.253 0.27-0.815-0.024-1.022l-0.112-0.079 0.127-0.135c0.163-0.174 0.173-0.523 0.020-0.731-0.205-0.279-0.41-0.337-1.205-0.337l-0.724-0v1.283zM39.668 28.156c-0.411 0.205-0.578 0.576-0.458 1.019 0.072 0.268 0.379 0.593 0.56 0.593 0.095 0 0.038 0.080-0.289 0.41l-0.407 0.41h0.68l0.389-0.41c0.271-0.285 0.428-0.41 0.519-0.41 0.125 0 0.13 0.015 0.13 0.41v0.41h0.546v-2.567h-0.699c-0.634 0-0.724 0.012-0.97 0.135zM41.993 29.304v1.283h0.546v-1.038h1.256v1.038h0.546v-2.567h-0.546v1.038h-1.256v-1.038h-0.546v1.283zM48 29.301v1.286h0.246c0.135 0 0.246-0.018 0.246-0.041s0.003-0.594 0.005-1.27l0.005-1.229-0.502-0.033v1.286zM51.003 29.304v1.283h0.491v-2.075h1.311v2.075h0.491v-2.567h-2.294v1.283zM54.050 29.304l0.016 1.283h0.488v-2.567l-0.519-0 0.016 1.283zM55.918 28.358c0 0.449-0.1 1.010-0.224 1.256-0.098 0.195-0.36 0.428-0.48 0.428-0.040 0-0.060 0.209-0.060 0.628v0.628h0.491v-0.71h1.961l0.016 0.341 0.016 0.341 0.519 0.033v-1.207h-0.437v-2.075h-1.802v0.337zM59.413 29c0 1.079-0.021 1.151-0.331 1.151-0.15 0-0.16 0.013-0.16 0.218v0.218h0.317c0.276 0 0.336-0.020 0.464-0.152 0.187-0.195 0.257-0.558 0.257-1.329v-0.593h0.928v2.075h0.491v-2.567h-1.966v0.979zM65.054 29.29l0.011 1.27 0.519 0.033v-2.081h1.038v-0.491h-1.578l0.011 1.27zM5.462 28.58c0.777 0.394 0.503 1.515-0.37 1.515-0.547 0-0.951-0.655-0.701-1.136 0.147-0.283 0.443-0.481 0.744-0.498 0.046-0.003 0.193 0.051 0.326 0.118zM10.481 28.511c0.262 0.075 0.472 0.296 0.551 0.58 0.196 0.699-0.606 1.284-1.208 0.881-0.334-0.223-0.471-0.684-0.3-1.012 0.106-0.204 0.316-0.39 0.503-0.446 0.214-0.064 0.24-0.064 0.454-0.003zM27.55 28.536c0.163 0.068 0.408 0.357 0.409 0.481 0 0.023-0.319 0.041-0.71 0.041-0.649 0-0.71-0.008-0.71-0.099 0-0.13 0.27-0.385 0.47-0.445 0.232-0.070 0.332-0.065 0.541 0.022zM30.741 28.614c0.258 0.186 0.358 0.379 0.356 0.684-0.005 0.484-0.32 0.798-0.8 0.798-0.685-0.001-1.038-0.819-0.579-1.342 0.264-0.301 0.715-0.362 1.023-0.14zM33.599 28.532c0.201 0.085 0.337 0.226 0.391 0.403l0.037 0.123h-0.714c-0.782 0-0.817-0.017-0.595-0.299 0.216-0.274 0.559-0.363 0.88-0.227zM46.579 28.611c0.51 0.377 0.504 1.061-0.012 1.375-0.501 0.306-1.193-0.079-1.202-0.669-0.005-0.334 0.148-0.584 0.452-0.741 0.279-0.144 0.538-0.132 0.762 0.034zM63.545 28.563c0.537 0.244 0.642 0.894 0.212 1.311-0.156 0.152-0.242 0.189-0.479 0.208s-0.323 0-0.479-0.106c-0.459-0.31-0.506-0.905-0.1-1.284 0.264-0.247 0.507-0.284 0.847-0.13zM24.557 29.237c0.006 0.384-0.003 0.734-0.020 0.778-0.024 0.064-0.149 0.080-0.603 0.080-0.315 0-0.563-0.018-0.551-0.041 0.198-0.386 0.277-0.64 0.328-1.054l0.061-0.493 0.774 0.032 0.011 0.698zM36.469 28.599c0.159 0.111 0.137 0.297-0.046 0.388-0.075 0.038-0.302 0.069-0.505 0.070l-0.369 0.001v-0.546h0.397c0.276 0 0.436 0.027 0.522 0.087zM40.792 28.894v0.382h-0.386c-0.524 0-0.704-0.099-0.705-0.387-0.002-0.265 0.196-0.367 0.723-0.373l0.369-0.004v0.382zM57.194 29.29l-0.007 0.778-0.58 0.015c-0.319 0.009-0.58 0.004-0.58-0.011s0.047-0.107 0.105-0.207c0.13-0.225 0.203-0.51 0.25-0.986l0.037-0.369 0.783-0-0.007 0.778zM36.498 29.556c0.176 0.080 0.212 0.237 0.089 0.389-0.089 0.109-0.148 0.123-0.555 0.123h-0.455l-0.017-0.287-0.017-0.287h0.41c0.225 0 0.47 0.028 0.544 0.061z"></path>
</symbol>
<symbol id="logo" viewBox="0 0 92 32">
<path d="M0 2.228v2.219h8.018l0.008 12.975c0.005 7.136 0.002 13.032-0.005 13.101-0.012 0.117 0.136 0.125 2.211 0.125h2.224v-26.2l7.982-0.037 0.019-2.201 0.019-2.201h-20.476v2.219zM25.557 15.325v15.324h4.366l0.018-5.28 0.018-5.28 4.188-0.041c4.626-0.046 4.605-0.044 6.155-0.563 3.114-1.043 5.501-3.817 6.192-7.195 0.485-2.371 0.229-4.993-0.673-6.886-0.46-0.965-0.836-1.505-1.603-2.298-1.564-1.617-3.433-2.462-6.491-2.933-0.631-0.097-1.667-0.12-6.461-0.145l-5.709-0.029v15.325zM51.114 15.329v15.32h4.367v-30.64h-4.367v15.32zM73.664 0.759c-1.512 0.223-2.624 0.532-3.931 1.090-2.945 1.258-5.687 3.696-7.428 6.607-2.211 3.695-2.698 8.59-1.279 12.855 0.771 2.316 1.913 4.126 3.795 6.014 2.643 2.65 5.556 4.1 9.13 4.545 0.866 0.108 3.145 0.109 3.937 0.001 3.574-0.483 6.313-1.805 8.892-4.292 2.69-2.593 4.131-5.383 4.721-9.137 0.118-0.752 0.12-3.397 0.003-4.224-0.495-3.497-1.813-6.207-4.254-8.74-2.65-2.751-5.605-4.259-9.313-4.751-0.756-0.1-3.519-0.080-4.272 0.031zM38.192 4.648c1.821 0.508 3.175 1.627 3.742 3.093 0.644 1.663 0.512 4.005-0.307 5.461-0.581 1.033-1.783 1.885-3.22 2.282-0.553 0.153-0.711 0.159-4.528 0.185l-3.955 0.027v-11.254l3.848 0.024c3.725 0.023 3.866 0.029 4.421 0.184zM78.323 5.229c2.723 0.585 4.96 2.027 6.733 4.341 0.674 0.879 1.223 1.929 1.602 3.062 0.738 2.206 0.738 5.121 0 7.328-0.646 1.929-1.825 3.657-3.39 4.968-1.443 1.209-2.81 1.918-4.486 2.326-1.133 0.276-1.038 0.355-1.038-0.861v-1.035l0.304-0.078c1.163-0.299 2.050-0.692 2.985-1.323 0.602-0.406 1.221-0.912 1.221-0.999 0-0.059-0.835-0.34-1.395-0.469-0.793-0.183-1.508-0.24-2.292-0.181l-0.666 0.050-0.078 0.447c-0.043 0.246-0.078 0.904-0.078 1.463v1.016l-0.183 0.070c-0.102 0.038-0.278 0.070-0.394 0.070h-0.21v-1.039c0-1.498 0.273-3.104 0.741-4.345 0.198-0.527 0.704-1.562 0.898-1.841 0.116-0.166 0.127-0.307 0.096-1.331-0.039-1.322 0.105-2.389 0.475-3.518 0.468-1.431 1.533-3.125 2.428-3.861 0.1-0.082 0.159-0.185 0.132-0.23-0.132-0.214-1.929-1.305-2.012-1.222-0.024 0.023-0.088 0.344-0.144 0.714-0.203 1.339-0.74 2.432-1.719 3.5-0.215 0.236-0.235 0.3-0.313 1.074-0.272 2.691-1.201 4.843-2.738 6.338l-0.577 0.562 0.183 0.649c0.341 1.203 0.542 2.685 0.543 3.995l0.001 0.555-0.233-0.001c-0.53-0.002-0.555-0.030-0.555-0.634 0-1.351-0.257-2.992-0.654-4.179-0.336-1.008-0.327-0.999-0.571-0.553-0.115 0.208-0.336 0.549-0.494 0.758s-0.286 0.394-0.286 0.411c0 0.017 0.11 0.195 0.244 0.394 0.431 0.641 0.581 1.212 0.567 2.158-0.006 0.453-0.023 0.917-0.036 1.031-0.025 0.223 0.051 0.265 0.853 0.471l0.304 0.078v2.071h-0.174c-0.332 0-1.813-0.423-2.465-0.704-2.937-1.266-5.272-3.782-6.262-6.747-0.741-2.22-0.741-5.141 0-7.362 1.029-3.082 3.547-5.708 6.599-6.884 0.651-0.251 1.784-0.54 2.481-0.634 0.86-0.116 3.259-0.038 4.050 0.132zM75.007 7.221l-0.34 0.027v1.41c0 3.303-0.672 6.088-1.955 8.097l-0.248 0.388 0.341 0.436c0.289 0.369 1.004 1.533 1.099 1.788 0.043 0.115 0.568-0.41 1.059-1.059 0.485-0.64 1.035-1.735 1.303-2.592 0.375-1.201 0.493-2.030 0.53-3.727 0.037-1.663-0.016-2.388-0.283-3.945l-0.15-0.877-0.508 0.013c-0.28 0.007-0.661 0.025-0.848 0.040zM77.214 7.302c-0.015 0.025 0.018 0.303 0.073 0.618 0.157 0.888 0.314 2.312 0.314 2.846 0.001 0.266 0.025 0.483 0.054 0.483 0.074-0 0.467-0.6 0.697-1.063 0.24-0.483 0.437-1.25 0.503-1.954l0.051-0.546-0.347-0.114c-0.481-0.158-1.311-0.324-1.344-0.27zM73.135 7.626c-0.389 0.122-0.732 0.271-0.762 0.33s-0.090 0.343-0.134 0.632c-0.172 1.133-0.843 2.344-1.825 3.295l-0.544 0.526 0.176 0.583c0.224 0.742 0.324 1.372 0.324 2.051l0.001 0.537 0.338 0.179c0.186 0.098 0.529 0.319 0.763 0.491l0.425 0.312 0.124-0.164c0.213-0.283 0.758-1.435 0.991-2.094 0.631-1.79 0.891-3.527 0.853-5.676l-0.022-1.225-0.708 0.222zM70.792 8.757c-0.369 0.247-0.974 0.748-1.343 1.114-0.612 0.606-0.662 0.676-0.566 0.789 0.058 0.068 0.229 0.331 0.38 0.584l0.275 0.46 0.596-0.624c0.475-0.498 0.659-0.757 0.911-1.283 0.296-0.618 0.532-1.375 0.454-1.453-0.019-0.019-0.337 0.167-0.706 0.414zM81.852 10.335c-1.537 1.597-2.389 3.73-2.389 5.981v0.747l0.463-0.433c0.485-0.453 1.186-0.906 1.792-1.157l0.358-0.148-0.024-0.696c-0.043-1.247 0.344-2.304 1.108-3.026l0.391-0.37-0.392-0.511c-0.215-0.281-0.485-0.6-0.599-0.709l-0.208-0.198-0.5 0.52zM68.16 11.453c-0.439 0.616-1.089 2.265-1.254 3.179l-0.049 0.268 0.487 0c0.483 0 1.379 0.132 1.955 0.287 0.165 0.044 0.316 0.065 0.335 0.045s-0.003-0.336-0.049-0.703c-0.132-1.042-0.666-2.513-1.137-3.128l-0.13-0.17-0.158 0.221zM83.579 12.266c-0.547 0.628-0.886 1.692-0.787 2.475 0.039 0.311 0.069 0.374 0.168 0.344 0.291-0.088 1.091-0.184 1.54-0.184l0.49-0.001-0.050-0.304c-0.125-0.771-0.815-2.556-1.010-2.613-0.045-0.013-0.202 0.114-0.349 0.283zM66.748 15.872c-0.092 0.365 0.134 2.506 0.279 2.651 0.136 0.136 1.431-0.348 2.064-0.771 0.474-0.317 1.222-1.117 1.192-1.276-0.030-0.161-1.065-0.551-1.803-0.68-0.348-0.061-0.87-0.11-1.159-0.11-0.506 0-0.528 0.007-0.573 0.185zM83.317 15.799c-1.113 0.201-2.104 0.694-2.944 1.464-0.398 0.365-1.125 1.251-1.125 1.372 0 0.017 0.491 0.017 1.092 0l1.092-0.031 0.501-0.475c0.838-0.794 1.56-1.129 2.595-1.204l0.591-0.043v-0.485c0-0.721 0.009-0.712-0.67-0.705-0.321 0.004-0.83 0.051-1.132 0.106zM70.833 17.099c-0.595 0.908-1.879 1.774-3.074 2.074-0.276 0.069-0.51 0.13-0.521 0.135-0.048 0.024 0.506 1.238 0.761 1.667 0.438 0.738 0.928 1.369 1.063 1.369 0.067 0 0.427-0.149 0.801-0.33 0.585-0.285 0.772-0.425 1.364-1.020 0.665-0.669 1.153-1.368 1.365-1.954 0.087-0.242 0.080-0.283-0.105-0.598-0.217-0.37-1.314-1.538-1.445-1.538-0.045 0-0.139 0.088-0.209 0.195zM83.824 17.827c-0.409 0.131-1.085 0.537-1.314 0.79-0.124 0.137-0.122 0.142 0.077 0.185 0.455 0.099 1.21 0.339 1.576 0.501l0.388 0.172 0.074-0.194c0.099-0.259 0.349-1.307 0.349-1.465 0.001-0.104-0.063-0.125-0.375-0.121-0.207 0.002-0.556 0.061-0.776 0.132zM79.24 19.476c-0.221 0.031-0.436 0.077-0.478 0.104-0.093 0.058-0.329 0.666-0.553 1.429l-0.165 0.561 0.583-0.047c1.117-0.091 2.713 0.18 3.727 0.632l0.494 0.22 0.208-0.247c0.292-0.346 0.789-1.108 1.016-1.556l0.192-0.379-0.414-0.184c-0.882-0.392-1.672-0.541-2.992-0.565-0.669-0.012-1.397 0.003-1.619 0.034zM71.237 22.059c-0.174 0.151-0.593 0.413-0.931 0.584s-0.628 0.319-0.645 0.329c-0.132 0.081 1.172 1.066 1.962 1.483l0.5 0.264 0.062-0.238c0.034-0.131 0.049-0.544 0.034-0.918-0.024-0.553-0.067-0.763-0.23-1.124-0.307-0.677-0.371-0.709-0.752-0.379zM76.892 25.524c0.016 0.016 0.020 0.483 0.009 1.038l-0.021 1.008h-1.926v-2.076h0.954c0.525 0 0.968 0.013 0.984 0.030z"></path>
</symbol>
<symbol id="icon-mail" viewBox="0 0 32 32">
<path d="M32.001 24c0 0.702-0.197 1.352-0.513 1.924l-10.104-11.305 9.994-8.744c0.389 0.617 0.623 1.342 0.623 2.125v16zM16 16.672l13.907-12.168c-0.571-0.312-1.213-0.504-1.907-0.504h-24.001c-0.694 0-1.337 0.192-1.905 0.504l13.906 12.168zM19.878 15.936l-3.219 2.818c-0.188 0.164-0.423 0.246-0.658 0.246s-0.47-0.082-0.658-0.246l-3.22-2.819-10.232 11.449c0.613 0.385 1.332 0.615 2.109 0.615h24.001c0.777 0 1.496-0.23 2.109-0.615l-10.233-11.449zM0.623 5.875c-0.389 0.617-0.623 1.342-0.623 2.125v16c0 0.702 0.196 1.352 0.514 1.924l10.103-11.307-9.993-8.742z"></path>
</symbol>
<symbol id="icon-phone" viewBox="0 0 32 32">
<path fill="currentColor" d="M31.856 25.506l-0.159-0.48c-0.377-1.121-1.614-2.291-2.75-2.599l-4.204-1.148c-1.14-0.31-2.766 0.107-3.601 0.941l-1.522 1.522c-5.53-1.494-9.866-5.831-11.358-11.359l1.522-1.522c0.834-0.834 1.251-2.458 0.941-3.598l-1.146-4.206c-0.31-1.138-1.482-2.374-2.601-2.748l-0.48-0.161c-1.121-0.373-2.72 0.004-3.554 0.838l-2.276 2.278c-0.407 0.404-0.666 1.561-0.666 1.566-0.080 7.226 2.754 14.188 7.865 19.3 5.099 5.099 12.035 7.928 19.24 7.868 0.038 0 1.228-0.256 1.635-0.66l2.276-2.276c0.834-0.834 1.211-2.433 0.838-3.554z"></path>
</symbol>
<symbol id="icon-telegram" viewBox="0 0 32 32">
<path d="M29.402 2.839l-28.351 10.989c-1.141 0.512-1.527 1.537-0.276 2.093l7.273 2.323 17.585-10.924c0.96-0.686 1.943-0.503 1.097 0.251l-15.104 13.746-0.474 5.817c0.439 0.898 1.244 0.902 1.757 0.456l4.179-3.974 7.157 5.387c1.662 0.989 2.567 0.351 2.924-1.462l4.694-22.342c0.487-2.232-0.344-3.215-2.462-2.36z"></path>
</symbol>
</defs>
</svg>
